<svg width="22" height="22" viewBox="0 0 22 22" fill="none" xmlns="http://www.w3.org/2000/svg">
<g id="Instagram" clip-path="url(#clip0_113_281)">
<path id="Vector" d="M16.1333 5.1334H17.5999M6.59994 0.733398H15.3999C16.9559 0.733398 18.4481 1.35149 19.5483 2.45171C20.6485 3.55192 21.2666 5.04413 21.2666 6.60007V15.4001C21.2666 16.956 20.6485 18.4482 19.5483 19.5484C18.4481 20.6486 16.9559 21.2667 15.3999 21.2667H6.59994C5.04401 21.2667 3.5518 20.6486 2.45158 19.5484C1.35137 18.4482 0.733276 16.956 0.733276 15.4001V6.60007C0.733276 5.04413 1.35137 3.55192 2.45158 2.45171C3.5518 1.35149 5.04401 0.733398 6.59994 0.733398ZM10.9999 15.4001C9.83299 15.4001 8.71383 14.9365 7.88867 14.1113C7.06351 13.2862 6.59994 12.167 6.59994 11.0001C6.59994 9.83311 7.06351 8.71396 7.88867 7.8888C8.71383 7.06364 9.83299 6.60007 10.9999 6.60007C12.1669 6.60007 13.2861 7.06364 14.1112 7.8888C14.9364 8.71396 15.3999 9.83311 15.3999 11.0001C15.3999 12.167 14.9364 13.2862 14.1112 14.1113C13.2861 14.9365 12.1669 15.4001 10.9999 15.4001Z" stroke="black" stroke-width="1.06667"/>
</g>
<defs>
<clipPath id="clip0_113_281">
<rect width="22" height="22" fill="white"/>
</clipPath>
</defs>
</svg>
