<svg width="22" height="22" viewBox="0 0 22 16" fill="none" xmlns="http://www.w3.org/2000/svg">
<g id="Meta logo">
<path id="Vector" d="M20.625 9.33187C20.625 10.3387 20.3526 11.2 19.837 11.8219C19.1984 12.5925 18.2041 13 16.9675 13C14.5664 13 12.8614 10.6875 11.0567 8.23625C9.59406 6.25 7.93633 4 6.35938 4C5.55328 4 4.64578 4.625 3.93164 5.66687C3.172 6.81049 2.76854 8.06188 2.75 9.33187C2.75 10.1569 2.95453 10.8394 3.34125 11.3056C3.72797 11.7719 4.28141 12 5.0325 12C6.33188 12 7.68367 10.4662 8.83352 8.96562C8.9224 8.84959 9.07103 8.76399 9.2467 8.72766C9.42237 8.69132 9.61069 8.70723 9.77023 8.77188C9.92978 8.83652 10.0475 8.94461 10.0974 9.07237C10.1474 9.20013 10.1255 9.33709 10.0366 9.45312C8.71922 11.1694 7.13883 13 5.0325 13C3.79414 13 2.79812 12.5925 2.16305 11.8219C1.64742 11.1969 1.375 10.3387 1.375 9.33187C1.39526 7.90743 1.84775 6.50381 2.70016 5.22125C3.67984 3.78875 4.97922 3 6.35938 3C8.76047 3 10.4646 5.3125 12.2702 7.76375C13.732 9.75 15.3897 12 16.9675 12C17.7186 12 18.272 11.7731 18.6587 11.3056C19.0455 10.8381 19.25 10.1569 19.25 9.33187C19.2317 8.06193 18.8286 6.81054 18.0692 5.66687C17.3594 4.625 16.4476 4 15.6406 4C14.9222 4 14.1213 4.4675 13.1905 5.43C13.1394 5.48504 13.0736 5.5321 12.9971 5.56844C12.9206 5.60478 12.8349 5.62966 12.745 5.64164C12.6552 5.65362 12.5629 5.65245 12.4737 5.6382C12.3844 5.62395 12.3 5.59691 12.2253 5.55865C12.1506 5.5204 12.0871 5.4717 12.0386 5.4154C11.9901 5.3591 11.9575 5.29632 11.9427 5.23075C11.9279 5.16518 11.9312 5.09812 11.9525 5.0335C11.9737 4.96888 12.0125 4.90798 12.0665 4.85437C12.8399 4.05812 14.043 3 15.6406 3C17.0199 3 18.3193 3.78875 19.299 5.22125C20.1517 6.50376 20.6045 7.90738 20.625 9.33187Z" fill="black"/>
</g>
</svg>
